<?xml version="1.0"?>
<svg width="120" height="117" xmlns="http://www.w3.org/2000/svg">

 <g>
  <title>background</title>
  <rect fill="none" id="canvas_background" height="119" width="122" y="-1" x="-1"/>
 </g>
 <g>
  <title>Layer 1</title>
  <path id="svg_1" d="m32.200012,32.569458l-7.100006,-7.099997l0,51.200018l0.100006,2.399994c0,1.100006 0.199982,2.399994 0.600006,3.700012l56.199982,19.799988l14,-6.199997l0,0l-63.799988,-63.800018z" fill="#00C4B3"/>
  <path id="svg_2" d="m25.800018,82.76944l0,0c0,0 0,0 0,0c0,0 0,0 0,0zm70.199982,13.600037l-14,6.199997l-56.100006,-19.800034c1.100006,4.100006 3.399994,8.700027 6,11.300034l18.300018,18.199951l40.799988,0.100021l5,-15.999969l0,0z" fill="#22D3C5"/>
  <path id="svg_3" d="m25.299988,25.469461l-21.799988,32.999994c-1.799988,1.89999 -0.899994,5.899998 2,8.900005l12.600006,12.700012l7.899994,2.799973c-0.299988,-1.299973 -0.600006,-2.59996 -0.600006,-3.699966l-0.100006,-2.399994l0,-51.300024l0,0z" fill="#0075C9"/>
  <path id="svg_4" d="m82.399963,26.069471c-1.299927,-0.299999 -2.599915,-0.500011 -3.699951,-0.60001l-2.5,-0.100014l-51.100006,0l70.899994,70.900038l0,0l6.200012,-14l-19.800049,-56.200014z" fill="#0075C9"/>
  <path id="svg_5" d="m82.299957,26.069471c0.100006,0 0.100006,0 0,0l0,0c0.100006,0 0.100006,0 0,0zm11.400055,6.000002c-2.599976,-2.600012 -7.100037,-5.000002 -11.299988,-6.000002l19.799988,56.200014l-6.200012,14l0,0l15.200012,-4.900009l0,-41.700005l-17.5,-17.599998z" fill="#00A8E1"/>
  <path id="svg_6" d="m79.599976,18.269442l-12.699951,-12.600006c-2.900024,-2.899994 -6.900024,-3.800011 -8.900024,-2l-33,21.800011l51.100037,0l2.499939,0.099987c1.100037,0 2.400024,0.200008 3.700012,0.60001l-2.700012,-7.900002z" fill="#00C4B3"/>
 </g>
</svg>