<?xml version="1.0"?>
<svg width="454" height="369" xmlns="http://www.w3.org/2000/svg">

 <g>
  <title>background</title>
  <rect fill="none" id="canvas_background" height="371" width="456" y="-1" x="-1"/>
 </g>
 <g>
  <title>Layer 1</title>
  <g id="svg_1">
   <g id="svg_2">
    <polygon id="svg_3" points="101.15699768066406,188 59.87799835205078,259.5 101.15699768066406,331 142.43599700927734,259.5 " fill="#303F9F"/>
    <polygon id="svg_4" points="348.8420104980469,45 307.5610046386719,116.5 348.8420104980469,188 390.1210021972656,116.5 " fill="#3F51B5"/>
    <polygon id="svg_5" points="390.1210021972656,116.5 266.2779998779297,331 348.8420104980469,331 431.3999938964844,188 " fill="#7986CB"/>
    <polygon id="svg_6" points="266.2779998779297,45 101.15699768066406,331 183.7209930419922,331 348.8420104980469,45 " fill="#FF4081"/>
    <polygon id="svg_7" points="101.15699768066406,45 18.59599995613098,188 59.87799835205078,259.5 183.7209930419922,45 " fill="#536DFE"/>
    <polygon id="svg_8" points="266.2779998779297,45 307.5610046386719,116.5 348.8420104980469,45 " fill-opacity="0.2" fill="#FFFFFF"/>
    <polygon id="svg_9" points="225,116.5 266.2779998779297,45 307.5610046386719,116.5 " fill-opacity="0.1" fill="#FFFFFF"/>
    <polygon id="svg_10" points="225,116.5 266.2779998779297,188 307.5610046386719,116.5 " fill-opacity="0" fill="#FFFFFF"/>
    <polygon id="svg_11" points="183.7209930419922,188 225,116.5 266.2779998779297,188 " fill-opacity="0.1"/>
    <polygon id="svg_12" points="183.7209930419922,188 225,259.5 266.2779998779297,188 " fill-opacity="0.2"/>
    <polygon id="svg_13" points="142.43800354003906,259.5 183.7209930419922,188 225,259.5 " fill-opacity="0.3"/>
    <polygon id="svg_14" points="142.43800354003906,259.5 183.7209930419922,331 225,259.5 " fill-opacity="0.4"/>
    <polygon id="svg_15" points="101.15699768066406,331 142.43800354003906,259.5 183.7209930419922,331 " fill-opacity="0.5"/>
    <polygon id="svg_16" points="101.15699768066406,45 142.43800354003906,116.5 183.7209930419922,45 " fill-opacity="0.2" fill="#FFFFFF"/>
    <polygon id="svg_17" points="59.87799835205078,116.5 101.15699768066406,45 142.43800354003906,116.5 " fill-opacity="0.1" fill="#FFFFFF"/>
    <polygon id="svg_18" points="59.87799835205078,116.5 101.15699768066406,188 142.43800354003906,116.5 " fill-opacity="0" fill="#FFFFFF"/>
    <polygon id="svg_19" points="18.598000049591064,188 59.87799835205078,116.5 101.15699768066406,188 " fill-opacity="0.1"/>
    <polygon id="svg_20" points="18.598000049591064,188 59.87799835205078,259.5 101.15699768066406,188 " fill-opacity="0.2"/>
    <polygon id="svg_21" points="142.43800354003906,259.5 101.15699768066406,188 59.87799835205078,259.5 " fill-opacity="0" fill="#FFFFFF"/>
    <polygon id="svg_22" points="142.43800354003906,259.5 101.15699768066406,331 59.87799835205078,259.5 " fill-opacity="0.2"/>
    <polygon id="svg_23" points="390.1210021972656,116.5 348.8420104980469,45 307.5610046386719,116.5 " fill-opacity="0.2"/>
    <polygon id="svg_24" points="390.1210021972656,116.5 348.8420104980469,188 307.5610046386719,116.5 " fill-opacity="0" fill="#FFFFFF"/>
    <g id="svg_25">
     <polygon id="svg_26" points="348.8420104980469,188 390.1210021972656,116.5 431.3999938964844,188 " fill-opacity="0.2" fill="#FFFFFF"/>
     <polygon id="svg_27" points="348.8420104980469,188 390.1210021972656,259.5 431.3999938964844,188 " fill-opacity="0.1" fill="#FFFFFF"/>
     <polygon id="svg_28" points="307.5610046386719,259.5 348.8420104980469,188 390.1210021972656,259.5 " fill-opacity="0" fill="#FFFFFF"/>
     <polygon id="svg_29" points="307.5610046386719,259.5 348.8420104980469,331 390.1210021972656,259.5 " fill-opacity="0.1"/>
     <polygon id="svg_30" points="266.2779998779297,331 307.5610046386719,259.5 348.8420104980469,331 " fill-opacity="0.2"/>
    </g>
   </g>
   <rect x="17" id="svg_31" height="416" width="416" fill="none" y="-20"/>
  </g>
  <g id="svg_32" display="none">
   <g id="svg_33" display="inline">
    <polygon id="svg_34" points="84.157,143 42.878,214.5 84.157,286 166.721,286   " fill="#303F9F"/>
    <polygon id="svg_35" points="331.842,0 249.278,0 331.842,143 373.121,71.5   " fill="#3F51B5"/>
    <polygon id="svg_36" points="373.121,71.5 249.278,286 331.842,286 414.4,143   " fill="#7986CB"/>
    <polygon id="svg_37" points="84.157,0 1.596,143 42.878,214.5 166.721,0   " fill="#536DFE"/>
    <polygon id="svg_38" points="249.278,0 290.561,71.5 331.842,0   " fill-opacity="0.5"/>
    <polygon id="svg_39" points="84.157,286 125.438,214.5 166.721,286   " fill-opacity="0.5"/>
    <polygon id="svg_40" points="84.157,0 125.438,71.5 166.721,0   " fill-opacity="0.2" fill="#FFFFFF"/>
    <polygon id="svg_41" points="42.878,71.5 84.157,0 125.438,71.5   " fill-opacity="0.1" fill="#FFFFFF"/>
    <polygon id="svg_42" points="42.878,71.5 84.157,143 125.438,71.5   " fill-opacity="0" fill="#FFFFFF"/>
    <polygon id="svg_43" points="1.598,143 42.878,71.5 84.157,143   " fill-opacity="0.1"/>
    <polygon id="svg_44" points="1.598,143 42.878,214.5 84.157,143   " fill-opacity="0.2"/>
    <polygon id="svg_45" points="125.438,214.5 84.157,143 42.878,214.5   " fill-opacity="0" fill="#FFFFFF"/>
    <polygon id="svg_46" points="373.121,71.5 331.842,143 290.561,71.5   " fill-opacity="0" fill="#FFFFFF"/>
    <g id="svg_47">
     <polygon id="svg_48" points="331.842,143 373.121,71.5 414.4,143    " fill-opacity="0.2" fill="#FFFFFF"/>
     <polygon id="svg_49" points="331.842,143 373.121,214.5 414.4,143    " fill-opacity="0.1" fill="#FFFFFF"/>
     <polygon id="svg_50" points="290.561,214.5 331.842,143 373.121,214.5    " fill-opacity="0" fill="#FFFFFF"/>
     <polygon id="svg_51" points="290.561,214.5 331.842,286 373.121,214.5    " fill-opacity="0.1"/>
     <polygon id="svg_52" points="249.278,286 290.561,214.5 331.842,286    " fill-opacity="0.2"/>
    </g>
    <polygon id="svg_53" points="125.438,214.5 84.157,286 42.878,214.5   " fill-opacity="0.2"/>
    <polygon id="svg_54" points="373.121,71.5 331.842,0 290.561,71.5   " fill-opacity="0.2"/>
   </g>
   <rect id="svg_55" height="416" width="416" fill="none" y="-65"/>
  </g>
  <g id="svg_56" display="none">
   <g id="svg_57" display="inline">
    <polygon id="svg_58" points="249.279,0 84.157,286 166.721,286 331.843,0   " fill="#FF4081"/>
    <polygon id="svg_59" points="249.279,0 290.558,71.5 331.843,0   " fill-opacity="0.2" fill="#FFFFFF"/>
    <polygon id="svg_60" points="208,71.5 249.279,0 290.558,71.5   " fill-opacity="0.1" fill="#FFFFFF"/>
    <polygon id="svg_61" points="208,71.5 249.279,143 290.558,71.5   " fill-opacity="0" fill="#FFFFFF"/>
    <polygon id="svg_62" points="166.721,143 208,214.5 249.279,143   " fill-opacity="0.2"/>
    <polygon id="svg_63" points="125.439,214.5 166.721,143 208,214.5   " fill-opacity="0.3"/>
    <polygon id="svg_64" points="125.439,214.5 166.721,286 208,214.5   " fill-opacity="0.4"/>
    <polygon id="svg_65" points="84.157,286 125.439,214.5 166.721,286   " fill-opacity="0.5"/>
    <polygon id="svg_66" points="166.721,143 208,71.5 249.279,143   " fill-opacity="0.1"/>
   </g>
   <g id="svg_67" display="inline">
    <polygon id="svg_68" points="331.84,0 166.718,286 249.279,286 373.121,71.5   " fill="#FF4081"/>
    <polygon id="svg_69" points="290.558,71.5 331.84,0 373.121,71.5   " fill-opacity="0.1" fill="#FFFFFF"/>
    <polygon id="svg_70" points="290.558,71.5 331.84,143 373.121,71.5   " fill-opacity="0" fill="#FFFFFF"/>
    <polygon id="svg_71" points="249.279,143 290.558,214.5 331.84,143   " fill-opacity="0.2"/>
    <polygon id="svg_72" points="208,214.5 249.279,143 290.558,214.5   " fill-opacity="0.3"/>
    <polygon id="svg_73" points="208,214.5 249.279,286 290.558,214.5   " fill-opacity="0.4"/>
    <polygon id="svg_74" points="166.718,286 208,214.5 249.279,286   " fill-opacity="0.5"/>
    <polygon id="svg_75" points="249.279,143 290.558,71.5 331.84,143   " fill-opacity="0.1"/>
   </g>
   <g id="svg_76" display="inline">
    <polygon id="svg_77" points="166.718,0 42.878,214.5 84.16,286 249.279,0   " fill="#FF4081"/>
    <polygon id="svg_78" points="166.718,0 208,71.5 249.279,0   " fill-opacity="0.2" fill="#FFFFFF"/>
    <polygon id="svg_79" points="125.439,71.5 166.718,0 208,71.5   " fill-opacity="0.1" fill="#FFFFFF"/>
    <polygon id="svg_80" points="125.439,71.5 166.718,143 208,71.5   " fill-opacity="0" fill="#FFFFFF"/>
    <polygon id="svg_81" points="84.16,143 125.439,214.5 166.718,143   " fill-opacity="0.2"/>
    <polygon id="svg_82" points="42.878,214.5 84.16,143 125.439,214.5   " fill-opacity="0.3"/>
    <polygon id="svg_83" points="42.878,214.5 84.16,286 125.439,214.5   " fill-opacity="0.4"/>
    <polygon id="svg_84" points="84.16,143 125.439,71.5 166.718,143   " fill-opacity="0.1"/>
   </g>
   <rect id="svg_85" height="416" width="416" fill="none" y="-65"/>
   <g id="svg_86" display="inline">
    <polygon id="svg_87" points="84.157,143 42.878,214.5 84.157,286 166.721,286   " fill="#303F9F"/>
    <polygon id="svg_88" points="331.843,0 249.279,0 331.843,143 373.121,71.5   " fill="#3F51B5"/>
    <polygon id="svg_89" points="373.121,71.5 249.279,286 331.843,286 414.4,143   " fill="#7986CB"/>
    <polygon id="svg_90" points="84.157,0 1.597,143 42.878,214.5 166.721,0   " fill="#536DFE"/>
    <polygon id="svg_91" points="249.279,0 290.558,71.5 331.843,0   " fill-opacity="0.5"/>
    <polygon id="svg_92" points="84.157,286 125.439,214.5 166.721,286   " fill-opacity="0.5"/>
    <polygon id="svg_93" points="84.157,0 125.439,71.5 166.721,0   " fill-opacity="0.2" fill="#FFFFFF"/>
    <polygon id="svg_94" points="42.878,71.5 84.157,0 125.439,71.5   " fill-opacity="0.1" fill="#FFFFFF"/>
    <polygon id="svg_95" points="42.878,71.5 84.157,143 125.439,71.5   " fill-opacity="0" fill="#FFFFFF"/>
    <polygon id="svg_96" points="1.6,143 42.878,71.5 84.157,143   " fill-opacity="0.1"/>
    <polygon id="svg_97" points="1.6,143 42.878,214.5 84.157,143   " fill-opacity="0.2"/>
    <polygon id="svg_98" points="125.439,214.5 84.157,143 42.878,214.5   " fill-opacity="0" fill="#FFFFFF"/>
    <polygon id="svg_99" points="373.121,71.5 331.843,143 290.558,71.5   " fill-opacity="0" fill="#FFFFFF"/>
    <g id="svg_100">
     <polygon id="svg_101" points="331.843,143 373.121,71.5 414.4,143    " fill-opacity="0.2" fill="#FFFFFF"/>
     <polygon id="svg_102" points="331.843,143 373.121,214.5 414.4,143    " fill-opacity="0.1" fill="#FFFFFF"/>
     <polygon id="svg_103" points="290.558,214.5 331.843,143 373.121,214.5    " fill-opacity="0" fill="#FFFFFF"/>
     <polygon id="svg_104" points="290.558,214.5 331.843,286 373.121,214.5    " fill-opacity="0.1"/>
     <polygon id="svg_105" points="249.279,286 290.558,214.5 331.843,286    " fill-opacity="0.2"/>
    </g>
    <polygon id="svg_106" points="125.439,214.5 84.157,286 42.878,214.5   " fill-opacity="0.2"/>
    <polygon id="svg_107" points="373.121,71.5 331.843,0 290.558,71.5   " fill-opacity="0.2"/>
   </g>
  </g>
  <g id="svg_108" display="none">
   <g id="svg_109" display="inline">
    <polygon id="svg_110" points="249.279,0 84.157,286 166.721,286 331.843,0   " fill="#9F499B"/>
    <polygon id="svg_111" points="249.279,0 290.558,71.5 331.843,0   " fill-opacity="0.2" fill="#FFFFFF"/>
    <polygon id="svg_112" points="208,71.5 249.279,0 290.558,71.5   " fill-opacity="0.1" fill="#FFFFFF"/>
    <polygon id="svg_113" points="208,71.5 249.279,143 290.558,71.5   " fill-opacity="0" fill="#FFFFFF"/>
    <polygon id="svg_114" points="166.721,143 208,214.5 249.279,143   " fill-opacity="0.2"/>
    <polygon id="svg_115" points="125.439,214.5 166.721,143 208,214.5   " fill-opacity="0.3"/>
    <polygon id="svg_116" points="125.439,214.5 166.721,286 208,214.5   " fill-opacity="0.4"/>
    <polygon id="svg_117" points="84.157,286 125.439,214.5 166.721,286   " fill-opacity="0.5"/>
    <polygon id="svg_118" points="166.721,143 208,71.5 249.279,143   " fill-opacity="0.1"/>
   </g>
   <g id="svg_119" display="inline">
    <polygon id="svg_120" points="331.84,0 166.718,286 249.279,286 373.121,71.5   " fill="#9F499B"/>
    <polygon id="svg_121" points="290.558,71.5 331.84,0 373.121,71.5   " fill-opacity="0.1" fill="#FFFFFF"/>
    <polygon id="svg_122" points="290.558,71.5 331.84,143 373.121,71.5   " fill-opacity="0" fill="#FFFFFF"/>
    <polygon id="svg_123" points="249.279,143 290.558,214.5 331.84,143   " fill-opacity="0.2"/>
    <polygon id="svg_124" points="208,214.5 249.279,143 290.558,214.5   " fill-opacity="0.3"/>
    <polygon id="svg_125" points="208,214.5 249.279,286 290.558,214.5   " fill-opacity="0.4"/>
    <polygon id="svg_126" points="166.718,286 208,214.5 249.279,286   " fill-opacity="0.5"/>
    <polygon id="svg_127" points="249.279,143 290.558,71.5 331.84,143   " fill-opacity="0.1"/>
   </g>
   <g id="svg_128" display="inline">
    <polygon id="svg_129" points="373.121,71.5 249.279,286 331.843,286 414.4,143   " fill="#9F499B"/>
    <polygon id="svg_130" points="331.843,143 373.121,214.5 414.4,143   " fill-opacity="0.2"/>
    <polygon id="svg_131" points="290.558,214.5 331.843,143 373.121,214.5   " fill-opacity="0.3"/>
    <polygon id="svg_132" points="290.558,214.5 331.843,286 373.121,214.5   " fill-opacity="0.4"/>
    <polygon id="svg_133" points="249.279,286 290.558,214.5 331.843,286   " fill-opacity="0.5"/>
    <polygon id="svg_134" points="331.843,143 373.121,71.5 414.4,143   " fill-opacity="0.1"/>
   </g>
   <g id="svg_135" display="inline">
    <polygon id="svg_136" points="166.718,0 42.878,214.5 84.16,286 249.279,0   " fill="#9F499B"/>
    <polygon id="svg_137" points="166.718,0 208,71.5 249.279,0   " fill-opacity="0.2" fill="#FFFFFF"/>
    <polygon id="svg_138" points="125.439,71.5 166.718,0 208,71.5   " fill-opacity="0.1" fill="#FFFFFF"/>
    <polygon id="svg_139" points="125.439,71.5 166.718,143 208,71.5   " fill-opacity="0" fill="#FFFFFF"/>
    <polygon id="svg_140" points="84.16,143 125.439,214.5 166.718,143   " fill-opacity="0.2"/>
    <polygon id="svg_141" points="42.878,214.5 84.16,143 125.439,214.5   " fill-opacity="0.3"/>
    <polygon id="svg_142" points="42.878,214.5 84.16,286 125.439,214.5   " fill-opacity="0.4"/>
    <polygon id="svg_143" points="84.16,143 125.439,71.5 166.718,143   " fill-opacity="0.1"/>
   </g>
   <g id="svg_144" display="inline">
    <polygon id="svg_145" points="84.157,0 1.6,143 42.878,214.5 166.721,0   " fill="#9F499B"/>
    <polygon id="svg_146" points="84.157,0 125.439,71.5 166.721,0   " fill-opacity="0.2" fill="#FFFFFF"/>
    <polygon id="svg_147" points="42.878,71.5 84.157,0 125.439,71.5   " fill-opacity="0.1" fill="#FFFFFF"/>
    <polygon id="svg_148" points="42.878,71.5 84.157,143 125.439,71.5   " fill-opacity="0" fill="#FFFFFF"/>
    <polygon id="svg_149" points="1.6,143 42.878,214.5 84.157,143   " fill-opacity="0.2"/>
    <polygon id="svg_150" points="1.6,143 42.878,71.5 84.157,143   " fill-opacity="0.1"/>
   </g>
   <rect id="svg_151" height="416" width="416" fill="none" y="-65"/>
  </g>
 </g>
</svg>